<?xml version="1.0" standalone="no"?>
<!DOCTYPE svg PUBLIC "-//W3C//DTD SVG 20010904//EN"
 "http://www.w3.org/TR/2001/REC-SVG-20010904/DTD/svg10.dtd">
<svg version="1.0" xmlns="http://www.w3.org/2000/svg"
 width="512.000000pt" height="512.000000pt" viewBox="0 0 512.000000 512.000000"
 preserveAspectRatio="xMidYMid meet">

<g transform="translate(0.000000,512.000000) scale(0.100000,-0.100000)"
fill="#000000" stroke="none">
<path d="M1086 3358 c36 -102 56 -118 149 -118 98 0 110 -12 163 -160 66 -185
222 -612 337 -925 59 -159 118 -321 131 -359 38 -110 47 -116 174 -116 98 0
108 2 127 23 11 12 103 190 204 395 135 275 187 372 198 370 10 -2 89 -149
201 -375 102 -205 194 -381 204 -393 17 -18 31 -20 121 -20 83 0 107 3 124 18
12 10 46 87 85 192 35 96 112 306 171 465 187 505 246 668 276 754 41 120 54
131 149 131 51 0 82 5 97 15 20 14 53 86 69 150 l6 25 -178 0 c-192 0 -218 -6
-241 -50 -7 -14 -78 -205 -157 -425 -271 -752 -327 -900 -347 -920 -32 -33
-64 -5 -106 92 l-36 81 41 114 c22 62 82 226 132 363 50 138 125 345 167 460
41 116 81 227 89 248 l14 39 -120 -4 c-93 -2 -123 -7 -135 -19 -15 -15 -53
-115 -261 -684 -76 -206 -80 -215 -98 -215 -7 0 -67 110 -135 246 -70 143
-126 244 -133 242 -6 -2 -63 -108 -127 -236 -64 -127 -122 -237 -129 -244 -10
-10 -15 -9 -25 2 -13 14 -267 703 -299 809 -7 24 -26 57 -41 73 -28 27 -31 28
-142 28 l-114 0 9 -27 c7 -26 129 -362 185 -513 13 -36 62 -173 110 -305 47
-132 98 -271 113 -309 l26 -68 -44 -87 c-44 -83 -46 -86 -80 -86 l-35 0 -147
405 c-82 223 -186 513 -233 645 -47 132 -93 257 -102 278 -27 62 -47 67 -252
67 l-181 0 26 -72z"/>
</g>
</svg>
